<?xml version="1.0" encoding="UTF-8" standalone="no"?>
<svg
   version="1.0"
   width="420pt"
   height="256.10001pt"
   viewBox="0 0 420 256.10001"
   preserveAspectRatio="xMidYMid meet"
   id="svg91"
   sodipodi:docname="drf.svg"
   inkscape:version="1.1.2 (b8e25be833, 2022-02-05)"
   xmlns:inkscape="http://www.inkscape.org/namespaces/inkscape"
   xmlns:sodipodi="http://sodipodi.sourceforge.net/DTD/sodipodi-0.dtd"
   xmlns="http://www.w3.org/2000/svg"
   xmlns:svg="http://www.w3.org/2000/svg">
  <defs
     id="defs95" />
  <sodipodi:namedview
     id="namedview93"
     pagecolor="#ffffff"
     bordercolor="#666666"
     borderopacity="1.0"
     inkscape:pageshadow="2"
     inkscape:pageopacity="0.0"
     inkscape:pagecheckerboard="0"
     inkscape:document-units="pt"
     showgrid="false"
     inkscape:snap-grids="false"
     inkscape:snap-to-guides="false"
     inkscape:zoom="2.13375"
     inkscape:cx="215.34856"
     inkscape:cy="171.529"
     inkscape:window-width="1920"
     inkscape:window-height="1017"
     inkscape:window-x="-8"
     inkscape:window-y="-8"
     inkscape:window-maximized="1"
     inkscape:current-layer="svg91"
     fit-margin-top="0"
     fit-margin-left="0"
     fit-margin-right="0"
     fit-margin-bottom="0" />
  <g
     transform="matrix(0.1,0,0,-0.1,-91,261)"
     fill="#000000"
     stroke="none"
     id="g89"
     style="fill:#000080">
    <path
       d="m 1110,2544 v -65 l -22,15 c -12,9 -41,16 -64,16 -35,0 -47,-5 -68,-31 -22,-26 -26,-40 -26,-99 0,-59 4,-73 26,-99 21,-26 33,-31 68,-31 23,0 51,7 63,15 19,13 22,13 27,0 3,-8 15,-15 26,-15 19,0 20,6 20,180 v 180 h -25 c -24,0 -25,-2 -25,-66 z m -24,-88 c 15,-12 19,-27 19,-76 0,-66 -16,-90 -60,-90 -44,0 -60,24 -60,90 0,66 16,90 60,90 12,0 30,-6 41,-14 z"
       id="path53"
       style="fill:#000080" />
    <path
       d="m 1252,2601 c -21,-13 -10,-46 16,-49 27,-4 40,22 22,43 -14,17 -20,18 -38,6 z"
       id="path55"
       style="fill:#000080" />
    <path
       d="m 1240,2361 c 0,-82 -3,-156 -6,-165 -4,-10 -18,-16 -35,-16 -22,0 -29,-5 -29,-20 0,-17 7,-20 43,-20 73,0 77,10 77,203 v 167 h -25 -25 z"
       id="path57"
       style="fill:#000080" />
    <path
       d="m 1407,2503 c -11,-3 -16,-10 -13,-20 3,-8 6,-16 6,-18 0,-2 23,-1 51,2 43,5 54,3 65,-12 24,-33 16,-42 -42,-48 -62,-6 -99,-26 -109,-57 -9,-27 1,-64 21,-84 20,-21 93,-21 122,0 20,14 23,14 28,0 3,-9 15,-16 25,-16 17,0 19,9 19,105 0,99 -2,107 -25,130 -20,21 -33,25 -77,24 -29,-1 -61,-3 -71,-6 z m 116,-159 c -3,-36 -29,-56 -68,-52 -24,2 -31,8 -33,29 -4,30 12,46 53,52 45,6 50,3 48,-29 z"
       id="path59"
       style="fill:#000080" />
    <path
       d="m 1650,2380 v -130 h 24 c 23,0 24,3 28,89 3,99 20,131 68,131 43,0 50,-16 50,-122 v -98 h 31 31 l -4,111 c -3,102 -5,113 -27,130 -28,23 -98,25 -128,4 -19,-13 -22,-13 -27,0 -3,8 -15,15 -26,15 -19,0 -20,-6 -20,-130 z"
       id="path61"
       style="fill:#000080" />
    <path
       d="m 1972,2487 c -28,-30 -30,-89 -3,-116 17,-17 18,-21 4,-32 -10,-9 -13,-22 -9,-42 5,-23 1,-33 -14,-44 -13,-9 -20,-25 -20,-48 0,-48 28,-65 108,-65 66,0 115,18 126,45 8,23 7,67 -2,82 -12,18 -59,33 -107,33 -73,0 -70,33 5,43 62,8 94,45 86,99 -6,33 -4,38 14,38 11,0 20,7 20,15 0,12 -17,15 -93,15 -85,0 -96,-2 -115,-23 z m 112,-29 c 9,-12 16,-28 16,-35 0,-17 -37,-53 -54,-53 -38,0 -62,70 -34,98 19,19 55,14 72,-10 z m 35,-222 c 37,-45 -72,-89 -127,-50 -26,18 -27,27 -6,48 20,20 117,22 133,2 z"
       id="path63"
       style="fill:#000080" />
    <path
       d="m 2264,2492 c -32,-26 -44,-55 -44,-111 0,-92 37,-131 123,-131 57,0 93,28 107,82 16,56 3,116 -30,150 -24,24 -37,28 -82,28 -35,0 -60,-6 -74,-18 z m 120,-44 c 9,-12 16,-43 16,-68 0,-57 -22,-90 -59,-90 -50,0 -66,21 -66,90 0,49 4,64 19,76 30,21 72,18 90,-8 z"
       id="path65"
       style="fill:#000080" />
    <path
       d="m 3434,1996 c -135,-27 -253,-119 -291,-228 -27,-80 -24,-205 9,-285 l 26,-63 h -414 -414 v 190 190 h 275 275 v 95 95 H 2515 2130 V 1385 779 l -157,3 -158,3 -58,85 c -57,84 -192,305 -202,331 -3,9 12,23 42,39 76,40 147,112 179,182 26,57 29,73 28,168 0,135 -24,201 -98,276 -98,98 -216,124 -557,124 H 910 V 1290 590 h 110 110 v 285 286 l 112,-3 111,-3 128,-208 c 198,-324 240,-381 315,-427 l 33,-21 90,46 91,45 h 445 445 v 100 100 h -275 -275 v 220 220 h 551 551 l 104,-50 c 63,-30 120,-66 144,-90 92,-92 69,-233 -47,-291 -91,-45 -282,-32 -454,31 -46,16 -84,30 -86,30 -2,0 -3,-47 -3,-104 V 652 l 39,-15 c 98,-40 165,-51 316,-51 164,-1 210,7 308,56 147,73 220,221 196,398 -13,88 -40,140 -108,202 -60,55 -81,67 -292,166 -145,68 -204,115 -220,175 -24,88 11,171 88,208 81,39 249,26 395,-32 28,-11 51,-18 52,-17 1,2 7,15 14,31 l 12,27 h 290 290 V 1195 590 h 110 110 v 605 605 h 200 200 v 95 94 l -722,5 c -398,3 -761,7 -808,10 -48,3 -111,-1 -146,-8 z m 949,-32 697,-5 v -64 -65 H 4880 4680 V 1225 620 h -80 -80 v 605 605 h -315 -315 l -10,-25 c -5,-14 -12,-25 -14,-25 -3,0 -40,12 -83,27 -67,22 -95,26 -203,27 -116,1 -128,-1 -168,-24 -63,-36 -97,-98 -96,-175 0,-34 8,-73 17,-91 22,-43 85,-97 148,-127 30,-14 111,-52 181,-85 216,-102 281,-185 282,-357 0,-76 -4,-99 -26,-146 -29,-63 -78,-116 -141,-153 -131,-77 -392,-88 -584,-25 l -63,21 v 75 c 0,67 2,75 18,70 197,-65 325,-85 428,-68 92,17 139,43 175,98 24,40 29,57 29,112 0,116 -50,170 -236,257 l -94,44 H 2885 2320 V 1010 760 h 275 275 v -70 -70 h -431 -432 l -89,-46 -90,-45 -34,26 c -57,44 -101,104 -254,351 -82,132 -154,247 -162,257 -11,16 -33,19 -145,24 l -133,6 V 907 620 h -80 -80 v 671 671 l 262,-5 c 275,-5 317,-10 405,-56 65,-33 110,-77 140,-139 25,-52 28,-67 28,-167 0,-94 -3,-117 -24,-163 -29,-64 -105,-136 -184,-175 -31,-15 -57,-30 -57,-33 0,-12 118,-208 202,-336 l 91,-138 h 179 178 v 605 605 h 355 355 v -65 -65 h -275 -275 v -220 -220 h 455 c 250,0 455,2 455,5 0,3 -11,22 -24,43 -62,95 -72,251 -23,348 68,133 204,197 397,188 58,-2 419,-7 803,-10 z"
       id="path67"
       style="fill:#000080" />
    <path
       d="m 1100,1570 v -263 l 148,6 c 165,7 198,14 263,56 66,41 99,111 99,205 0,85 -21,138 -73,183 -54,48 -121,64 -289,70 l -148,6 z m 343,209 c 53,-18 113,-73 128,-116 18,-55 7,-173 -20,-217 -46,-74 -144,-106 -323,-106 h -98 v 231 232 l 138,-6 c 75,-3 154,-11 175,-18 z"
       id="path69"
       style="fill:#000080" />
    <path
       d="m 2639,409 c -27,-10 -49,-46 -49,-80 0,-12 -8,-23 -20,-26 -11,-3 -20,-12 -20,-19 0,-8 9,-14 20,-14 19,0 20,-7 20,-110 V 50 h 30 30 v 110 110 h 30 c 23,0 30,4 30,20 0,16 -7,20 -31,20 -27,0 -30,3 -27,28 2,22 9,28 38,32 41,6 53,34 18,44 -29,7 -37,7 -69,-5 z"
       id="path71"
       style="fill:#000080" />
    <path
       d="M 4870,230 V 50 h 25 c 23,0 25,4 25,44 0,28 6,48 16,57 15,12 20,9 43,-21 57,-74 66,-82 93,-78 l 27,3 -53,70 -53,70 49,57 50,58 h -30 c -24,0 -41,-12 -86,-62 l -56,-61 v 111 112 h -25 -25 z"
       id="path73"
       style="fill:#000080" />
    <path
       d="M 2760,180 V 50 h 24 c 23,0 24,3 27,85 4,94 22,126 73,128 14,1 26,5 26,9 0,3 3,13 6,22 10,25 -54,21 -82,-5 l -22,-21 -7,21 c -3,12 -15,21 -26,21 -18,0 -19,-8 -19,-130 z"
       id="path75"
       style="fill:#000080" />
    <path
       d="m 2997,303 c -11,-3 -16,-10 -13,-20 3,-8 6,-16 6,-18 0,-2 23,-1 51,2 43,5 54,3 65,-12 24,-33 16,-42 -42,-48 -62,-6 -99,-26 -109,-57 -9,-27 1,-64 21,-84 20,-21 93,-21 122,0 20,14 23,14 28,0 3,-9 15,-16 25,-16 17,0 19,9 19,105 0,99 -2,107 -25,130 -20,21 -33,25 -77,24 -29,-1 -61,-3 -71,-6 z m 116,-159 c -3,-36 -29,-56 -68,-52 -24,2 -31,8 -33,29 -4,30 12,46 53,52 45,6 50,3 48,-29 z"
       id="path77"
       style="fill:#000080" />
    <path
       d="M 3240,180 V 50 h 25 c 24,0 25,2 25,74 0,93 14,134 48,143 48,12 57,-5 60,-116 l 3,-101 h 29 30 v 93 c 0,104 12,127 63,127 38,0 47,-26 47,-129 0,-90 0,-91 25,-91 h 25 v 108 c 0,95 -2,111 -20,130 -25,27 -94,30 -128,6 -21,-15 -25,-15 -41,0 -22,20 -90,21 -118,1 -19,-13 -22,-13 -27,0 -3,8 -15,15 -26,15 -19,0 -20,-6 -20,-130 z"
       id="path79"
       style="fill:#000080" />
    <path
       d="m 3734,292 c -32,-26 -44,-55 -44,-111 0,-94 37,-131 129,-131 62,0 81,7 81,30 0,16 -7,18 -57,13 -66,-5 -88,6 -99,49 l -6,28 h 86 86 v 41 c 0,61 -42,99 -107,99 -30,0 -56,-7 -69,-18 z m 110,-38 c 32,-32 20,-44 -44,-44 -33,0 -60,3 -60,8 0,4 7,18 16,30 18,26 65,30 88,6 z"
       id="path81"
       style="fill:#000080" />
    <path
       d="m 3955,279 c 4,-16 19,-74 34,-127 27,-94 29,-97 58,-100 l 30,-3 30,106 29,107 29,-107 28,-106 31,3 c 30,3 31,5 67,131 l 37,127 h -28 c -28,0 -29,-3 -53,-102 l -25,-103 -12,45 c -46,172 -41,161 -74,158 -30,-3 -32,-6 -57,-98 -27,-96 -30,-97 -48,-25 -31,125 -31,125 -57,125 -23,0 -25,-3 -19,-31 z"
       id="path83"
       style="fill:#000080" />
    <path
       d="m 4404,292 c -32,-26 -44,-55 -44,-111 0,-92 37,-131 123,-131 57,0 93,28 107,82 16,56 3,116 -30,150 -24,24 -37,28 -82,28 -35,0 -60,-6 -74,-18 z m 120,-44 c 9,-12 16,-43 16,-68 0,-57 -22,-90 -59,-90 -50,0 -66,21 -66,90 0,49 4,64 19,76 30,21 72,18 90,-8 z"
       id="path85"
       style="fill:#000080" />
    <path
       d="M 4660,180 V 50 h 24 c 23,0 24,3 27,85 4,94 22,126 73,128 14,1 26,5 26,9 0,3 3,13 6,22 10,25 -54,21 -82,-5 l -22,-21 -7,21 c -3,12 -15,21 -26,21 -18,0 -19,-8 -19,-130 z"
       id="path87"
       style="fill:#000080" />
  </g>
</svg>
